<svg data-logo="logo" xmlns="http://www.w3.org/2000/svg" viewBox="0 0 36 41">
    <g style="opacity: 1;" id="logogram" transform="translate(0, 0) rotate(0)"><path d="M17.6193 6.13949C17.3398 5.47149 16.8753 4.54342 16.1922 3.54001C15.4418 2.4377 14.4188 1.23104 13.0714 0.171091C13.7195 0.142645 14.3402 0.170526 14.9143 0.234853C15.338 0.654309 15.7143 1.11071 16.0428 1.57927C16.9576 2.88402 17.4738 4.24352 17.6095 5.06578C17.616 5.10541 17.6303 5.14235 17.6509 5.1756C17.6714 5.14235 17.6857 5.10541 17.6923 5.06578C17.8279 4.24352 18.3442 2.88402 19.2589 1.57927C19.5874 1.11071 19.9637 0.654309 20.3875 0.234853C20.9616 0.170526 21.5822 0.142645 22.2304 0.171091C20.883 1.23104 19.8599 2.4377 19.1095 3.54001C18.4265 4.54342 17.962 5.47149 17.6825 6.13949V6.29371C17.6722 6.26818 17.6617 6.24218 17.6509 6.21574C17.64 6.24218 17.6295 6.26818 17.6193 6.29371V6.13949Z" fill="#ffffff"></path><path d="M17.6509 0.900488C17.2464 0.73067 16.6985 0.555119 16.0491 0.417588C16.2772 0.684899 16.4876 0.958829 16.6806 1.23411C17.0548 1.76782 17.3677 2.31258 17.6193 2.83332V2.96626C17.6297 2.94397 17.6402 2.92162 17.6509 2.89923C17.6615 2.92162 17.672 2.94397 17.6825 2.96626V2.83332C17.9341 2.31258 18.247 1.76782 18.6211 1.23411C18.8141 0.958829 19.0246 0.684899 19.2526 0.417588C18.6033 0.555119 18.0554 0.73067 17.6509 0.900488Z" fill="#ffffff"></path><path d="M15.5494 3.87781C14.7289 2.67263 13.5809 1.35479 12.0395 0.264119C11.7031 0.310435 11.3624 0.373472 11.0197 0.455732C12.1951 1.06329 13.1584 1.98062 13.9887 2.91892C14.439 3.42767 14.8619 3.95693 15.26 4.45516C15.4288 4.66643 15.5933 4.87225 15.7534 5.06842C16.1598 5.56639 16.5382 6.0026 16.9069 6.34436C16.6459 5.72484 16.2064 4.84296 15.5494 3.87781Z" fill="#ffffff"></path><path d="M13.3974 3.32288C12.424 2.22291 11.3433 1.24937 10.0274 0.748607C9.59172 0.90236 9.15653 1.09072 8.72667 1.31873C9.89961 1.54237 10.9147 2.18096 11.7935 2.90477C12.4278 3.42719 13.0182 4.01835 13.553 4.5539C13.7573 4.75849 13.9536 4.95508 14.1411 5.13649C14.4868 5.47112 14.8026 5.75515 15.0969 5.96585C15.1125 5.97701 15.1279 5.9879 15.1432 5.99852C15.3249 6.02597 15.5142 6.06771 15.7129 6.12409C15.523 5.90998 15.3339 5.68388 15.1446 5.45191C14.9757 5.24494 14.8064 5.03299 14.6348 4.81827C14.2413 4.32573 13.836 3.81849 13.3974 3.32288Z" fill="#ffffff"></path><path d="M17.6509 39.5213C17.6616 39.5601 17.6721 39.5989 17.6825 39.6378C17.6825 39.5636 17.6825 39.4874 17.6825 39.4094C17.8381 38.8683 18.0328 38.3369 18.248 37.8143C18.5143 37.1676 18.8141 36.5299 19.1124 35.9027L19.2062 35.7056C19.4735 35.1441 19.7366 34.5915 19.9755 34.0396C21.008 31.6542 21.5479 29.3733 19.8934 26.9212C19.2214 27.1313 18.4255 27.2242 17.6509 27.231C16.8763 27.2242 16.0803 27.1313 15.4084 26.9212C13.7539 29.3733 14.2937 31.6542 15.3263 34.0396C15.5652 34.5915 15.8283 35.1441 16.0956 35.7056L16.1894 35.9027C16.4876 36.5299 16.7874 37.1676 17.0538 37.8143C17.269 38.3369 17.4637 38.8683 17.6193 39.4094C17.6193 39.4874 17.6193 39.5636 17.6193 39.6378C17.6296 39.5989 17.6401 39.5601 17.6509 39.5213Z" fill="#ffffff"></path><path d="M14.7196 26.6521C12.9427 29.3411 13.5762 31.848 14.6261 34.2736C14.8697 34.8362 15.1377 35.3991 15.4043 35.9591L15.4982 36.1564C15.7965 36.7836 16.0899 37.4082 16.3494 38.0382C16.6393 38.7421 16.8844 39.4472 17.0443 40.16C16.596 39.3906 16.0956 38.7274 15.555 38.1409C15.3426 37.7216 15.101 37.2984 14.8464 36.8743C14.5916 36.4496 14.3239 36.0238 14.0548 35.5959C13.4943 34.7046 12.9281 33.8041 12.4604 32.8851C11.7721 31.5324 11.3332 30.2021 11.4703 28.9189C11.5907 27.7917 12.1593 26.6667 13.477 25.5718C13.7241 26.0243 14.164 26.3839 14.7196 26.6521Z" fill="#ffffff"></path><path d="M10.7245 28.8574C10.8733 27.4639 11.621 26.1144 13.2628 24.8538C13.2553 24.7611 13.2545 24.6655 13.2608 24.5673C13.3133 24.5079 13.4321 24.4352 13.6984 24.3606C13.9632 24.2865 14.2827 24.234 14.6521 24.1733C14.7738 24.1533 14.901 24.1324 15.0333 24.1096C15.5461 24.0211 16.1148 23.9057 16.6215 23.6953C17.0094 23.5342 17.3729 23.3124 17.6509 22.9961C17.9288 23.3124 18.2924 23.5342 18.6802 23.6953C19.1869 23.9057 19.7556 24.0211 20.2684 24.1096C20.4008 24.1324 20.5279 24.1533 20.6496 24.1733C21.0191 24.234 21.3386 24.2865 21.6033 24.3606C21.8697 24.4352 21.9884 24.5079 22.0409 24.5673C22.0473 24.6655 22.0465 24.7611 22.039 24.8538C23.6808 26.1144 24.4285 27.4639 24.5773 28.8574C24.7322 30.3078 24.2332 31.7624 23.5252 33.1537C23.0448 34.0978 22.4514 35.0417 21.8827 35.9464C21.7505 36.1568 21.6191 36.3658 21.4912 36.5715C22.5498 35.7693 23.6933 35.109 24.8589 34.436L25 34.3544C26.1894 31.6518 26.2879 29.5204 25.8518 27.8203C25.3326 25.7964 24.0445 24.336 22.8146 23.2158C22.8119 23.2187 22.8092 23.2215 22.8066 23.2243C22.8009 23.2304 22.7952 23.2362 22.7897 23.242C22.6898 23.3455 22.5989 23.4289 22.5245 23.4903C22.4836 23.5241 22.4421 23.5557 22.4037 23.582C22.3767 23.6 22.3497 23.6171 22.3198 23.6338C22.2578 23.6693 22.1859 23.6978 22.113 23.7163C22.0477 23.733 21.9785 23.7459 21.9047 23.7551C21.8798 23.7476 21.8552 23.7404 21.8307 23.7336C21.5175 23.6459 21.1321 23.5827 20.7505 23.5201C20.637 23.5015 20.5236 23.4829 20.4128 23.4638C19.9078 23.3766 19.4173 23.2735 19.0004 23.1003C18.5991 22.9336 18.2864 22.7106 18.0953 22.3902L18.331 21.0228C18.4043 20.5974 18.6522 20.2096 19.0466 19.9548C19.0862 19.9292 19.1259 19.9036 19.1658 19.8779L19.1725 19.8736C19.713 19.5256 20.2751 19.1637 20.829 18.5965C21.086 18.3333 21.2041 17.9904 21.2041 17.6436C20.7981 17.9858 20.2572 18.177 19.6945 18.1769H15.6072C15.0446 18.177 14.5037 17.9858 14.0977 17.6436C14.0977 17.9904 14.2157 18.3333 14.4728 18.5965C15.0267 19.1637 15.5888 19.5256 16.1293 19.8736L16.1313 19.8749C16.1727 19.9016 16.214 19.9282 16.2552 19.9548C16.6496 20.2096 16.8975 20.5974 16.9708 21.0228L17.2064 22.3902C17.0153 22.7106 16.7027 22.9336 16.3014 23.1003C15.8844 23.2735 15.394 23.3766 14.8889 23.4638C14.7781 23.4829 14.665 23.5015 14.5516 23.5201C14.1699 23.5826 13.7843 23.6459 13.471 23.7336C13.4466 23.7404 13.4219 23.7476 13.3971 23.7551C13.3233 23.7459 13.2541 23.733 13.1887 23.7163C13.1158 23.6978 13.0439 23.6693 12.982 23.6338C12.952 23.6171 12.9251 23.6 12.8981 23.582C12.8596 23.5557 12.8182 23.5241 12.7772 23.4903C12.7028 23.4289 12.6119 23.3455 12.5121 23.242C12.504 23.2336 12.4956 23.2248 12.4871 23.2158C11.2573 24.336 9.96919 25.7964 9.45001 27.8203C9.01391 29.5204 9.11233 31.6518 10.3017 34.3544L10.4429 34.436C11.6085 35.109 12.7519 35.7693 13.8105 36.5715C13.6827 36.3658 13.5518 36.1576 13.4195 35.9472C12.8508 35.0425 12.257 34.0978 11.7766 33.1537C11.0686 31.7624 10.5696 30.3078 10.7245 28.8574Z" fill="#ffffff"></path><path d="M12.0444 22.6717C10.7461 23.8393 9.29576 25.4282 8.71926 27.6757C8.29335 29.336 8.35081 31.3287 9.25724 33.7439C8.33703 33.1955 7.41624 32.6071 6.52512 31.9041C6.26933 31.2015 6.14633 30.5462 6.12542 29.9334C6.07272 28.3886 6.66726 27.0721 7.50585 25.9043C8.16788 24.9824 8.96665 24.1716 9.71411 23.4128C9.92154 23.2023 10.1254 22.9954 10.3209 22.7915C10.7333 22.3617 11.1122 21.9412 11.3998 21.5292L11.4439 21.53C11.5578 21.8371 11.7001 22.1297 11.8679 22.4035C11.9268 22.4994 11.9861 22.5888 12.0444 22.6717Z" fill="#ffffff"></path><path d="M10.8169 21.1035C10.9939 20.8375 11.1117 20.5952 11.1689 20.3703C11.1341 20.0482 11.1326 19.7229 11.1647 19.3968C11.1917 19.1243 11.2332 18.7738 11.2581 18.568L11.0399 18.4013C10.9877 18.3613 10.9365 18.3212 10.8862 18.281C10.8675 18.3396 10.8463 18.3996 10.8227 18.461C10.6853 18.8185 10.4579 19.2431 10.1183 19.7264C9.43888 20.6933 8.30009 21.9102 6.49508 23.3161C4.33234 25.0006 3.61736 26.6784 3.64312 28.1656C3.64863 28.4841 3.68817 28.7964 3.75609 29.1006C4.31197 29.8328 4.89883 30.4682 5.50615 31.0327C5.43063 30.6629 5.38863 30.3033 5.37669 29.9531C5.31814 28.2372 5.98268 26.792 6.87232 25.5531C7.56776 24.5847 8.41595 23.7241 9.16771 22.9614C9.36977 22.7564 9.56486 22.5585 9.74815 22.3674C10.1872 21.9097 10.557 21.494 10.8169 21.1035Z" fill="#ffffff"></path><path d="M10.2431 17.7119C10.2394 17.8307 10.2057 18.0093 10.113 18.2504C9.99737 18.5513 9.79717 18.9305 9.48087 19.3807C8.84838 20.2809 7.762 21.4498 5.99817 22.8237C3.83875 24.5056 2.97084 26.2426 2.89838 27.8642C2.63125 27.445 2.38623 27.0246 2.16221 26.6039C2.17337 26.3283 2.20434 26.0542 2.25604 25.782C2.56718 24.1442 3.63661 22.536 5.75005 21.0771C7.55817 19.829 8.58764 18.6597 9.1841 17.7709C9.372 17.4909 9.51618 17.2398 9.6278 17.0243C9.80782 17.2549 10.012 17.4845 10.2431 17.7119Z" fill="#ffffff"></path><path d="M9.09625 16.4413C9.116 16.3975 9.13383 16.3567 9.1501 16.3186C8.93574 15.948 8.77688 15.579 8.66259 15.2178C8.42348 15.5246 8.10423 15.8891 7.69611 16.3001C6.86341 17.1388 5.64618 18.1861 3.94601 19.3542C2.00589 20.687 1.22324 22.4177 0.991083 23.8785C1.15837 24.3827 1.35277 24.8896 1.57625 25.3975C1.9871 23.6708 3.1667 22.0234 5.28727 20.5596C7.02272 19.3616 7.99008 18.2544 8.53883 17.4366C8.81344 17.0274 8.98511 16.6879 9.09625 16.4413Z" fill="#ffffff"></path><path d="M8.45119 14.2399C8.31345 14.5133 7.91203 15.0815 7.13161 15.8675C6.33283 16.6721 5.1508 17.691 3.48459 18.8357C1.92276 19.9087 1.04576 21.2149 0.590255 22.4685C0.317428 21.3201 0.179107 20.1948 0.150879 19.114C0.563434 18.1862 1.74553 16.7561 4.31732 15.6958C6.00184 15.0013 7.23563 14.1787 8.08047 13.4452C8.20437 13.3376 8.32046 13.2315 8.4288 13.1274C8.40203 13.4747 8.40403 13.8486 8.45119 14.2399Z" fill="#ffffff"></path><path d="M7.55395 12.9771C8.16624 12.4455 8.53388 11.9861 8.70957 11.6966C8.78527 11.4557 8.87498 11.2159 8.97825 10.9777C8.77857 10.9017 8.58794 10.8204 8.40614 10.7341C7.73097 11.2384 6.50274 12.0145 3.98042 12.8962C2.58629 13.3835 1.73134 14.1178 1.23769 14.9278C0.797974 15.6494 0.634747 16.4482 0.654935 17.2156C1.40765 16.475 2.49405 15.7205 3.99912 15.1C5.60494 14.438 6.76858 13.659 7.55395 12.9771Z" fill="#ffffff"></path><path d="M9.27194 10.3723C6.99474 9.50399 6.09031 7.88221 6.06715 6.43759C6.04255 4.9031 6.98172 3.68666 8.21841 3.54863C8.77157 3.48689 9.33135 3.73276 10.1483 4.34206C10.5348 4.63037 10.9573 4.98263 11.4478 5.39163L11.5038 5.43835C11.9075 5.77489 12.3534 6.14566 12.8524 6.54039C12.6364 6.68275 12.4262 6.84337 12.2153 7.01247C11.7062 6.27417 10.3429 5.5209 7.66783 5.67654C7.46143 5.68855 7.30519 5.84529 7.31886 6.02663C7.33253 6.20797 7.51093 6.34524 7.71733 6.33323C10.492 6.17179 11.4234 7.03829 11.6468 7.48217C11.6127 7.51162 11.5788 7.54118 11.5452 7.57086C10.9374 7.41229 10.1979 7.37995 9.50094 7.41487C8.71857 7.45406 7.94261 7.58056 7.3886 7.74281C7.19236 7.80028 7.08631 7.98663 7.15172 8.15904C7.21713 8.33145 7.42924 8.42463 7.62548 8.36716C8.10559 8.22655 8.81454 8.10844 9.54358 8.07192C10.0469 8.04671 10.5378 8.06156 10.9576 8.12582C10.2597 8.83202 9.69243 9.58947 9.27194 10.3723Z" fill="#ffffff"></path><path d="M12.0195 4.96095C12.4675 5.33448 12.9605 5.74427 13.5178 6.18049C13.5972 6.14769 13.678 6.11812 13.7605 6.09215C13.8579 6.06154 13.956 6.03611 14.0552 6.01596C13.9001 5.87816 13.7438 5.73111 13.5864 5.57885C13.382 5.381 13.1755 5.17419 12.9651 4.96348C12.4384 4.43606 11.887 3.88383 11.2812 3.38492C10.9611 3.12124 10.6205 2.87063 10.2619 2.65266C8.79019 1.75812 6.91838 2.30467 5.74071 3.5692C3.79581 5.65753 4.47658 7.34037 5.14003 8.85591C4.32115 8.96154 3.45229 9.55884 2.67283 10.5265C3.21332 10.239 3.7747 10.0258 4.32 9.87074C5.16417 9.63075 5.98151 9.52675 6.64424 9.50453C5.74305 8.58397 5.33478 7.48426 5.31815 6.44686C5.2909 4.74739 6.34418 3.0944 8.12402 2.89575C9.02325 2.79539 9.80642 3.22379 10.633 3.84035C11.0359 4.1408 11.4721 4.50457 11.9553 4.90743L12.0195 4.96095Z" fill="#ffffff"></path><path d="M4.5506 10.4969C4.00596 10.6517 3.45205 10.8676 2.92862 11.1617C1.99558 11.6858 1.3617 12.6101 0.998478 13.6261C0.916928 13.8542 0.840128 14.0885 0.768571 14.3287C1.36837 13.4945 2.31326 12.7706 3.70352 12.2847C5.92085 11.5096 7.08018 10.8297 7.73345 10.3688C7.6356 10.3083 7.541 10.2461 7.44959 10.1825C6.85063 10.1203 5.73633 10.1598 4.5506 10.4969Z" fill="#ffffff"></path><path d="M16.2502 12.3712L15.026 16.0848C15.364 15.0415 15.2528 14.0342 15.1072 13.3366C14.6054 13.3812 14.2392 13.3478 13.8941 13.2704C12.9836 13.0661 12.3765 12.3578 11.7983 11.6833C11.7123 11.583 11.6269 11.4834 11.5413 11.3863C11.4238 11.2531 11.286 11.1148 11.122 10.9631C11.3862 11.0051 11.6446 11.0435 11.8981 11.0811C13.4658 11.3141 14.8457 11.5191 16.2502 12.3712Z" fill="#ffffff"></path><path d="M15.026 16.0848C15.0214 16.0988 15.0168 16.1129 15.0121 16.127L15.026 16.0848Z" fill="#ffffff"></path><path d="M19.7524 3.87781C20.5728 2.67263 21.7209 1.35479 23.2623 0.264119C23.5986 0.310435 23.9394 0.373472 24.2821 0.455732C23.1066 1.06329 22.1434 1.98062 21.313 2.91892C20.8628 3.42767 20.4399 3.95693 20.0417 4.45516C19.8729 4.66643 19.7085 4.87225 19.5484 5.06842C19.142 5.56639 18.7635 6.0026 18.3948 6.34436C18.6558 5.72484 19.0954 4.84296 19.7524 3.87781Z" fill="#ffffff"></path><path d="M21.9044 3.32288C22.8778 2.22291 23.9585 1.24937 25.2744 0.748607C25.71 0.90236 26.1452 1.09072 26.5751 1.31873C25.4022 1.54237 24.3871 2.18096 23.5082 2.90477C22.8739 3.42719 22.2836 4.01835 21.7488 4.5539C21.5445 4.75849 21.3482 4.95508 21.1607 5.13649C20.815 5.47112 20.4992 5.75515 20.2049 5.96585C20.1893 5.97701 20.1739 5.9879 20.1586 5.99852C19.9768 6.02597 19.7876 6.06771 19.5889 6.12409C19.7788 5.90998 19.9678 5.68388 20.1571 5.45191C20.326 5.24495 20.4954 5.03302 20.6669 4.8183C21.0605 4.32576 21.4658 3.81849 21.9044 3.32288Z" fill="#ffffff"></path><path d="M20.5821 26.6521C22.3591 29.3411 21.7255 31.848 20.6756 34.2736C20.4321 34.8362 20.1641 35.3991 19.8974 35.9591L19.8036 36.1564C19.5053 36.7836 19.2119 37.4082 18.9524 38.0382C18.6625 38.7421 18.4174 39.4472 18.2575 40.16C18.7058 39.3906 19.2062 38.7274 19.7468 38.1409C19.9591 37.7216 20.2008 37.2984 20.4553 36.8743C20.7101 36.4496 20.9779 36.0238 21.247 35.5959C21.8074 34.7047 22.3737 33.8041 22.8414 32.8851C23.5297 31.5324 23.9685 30.2021 23.8315 28.9189C23.7111 27.7917 23.1424 26.6667 21.8247 25.5718C21.5776 26.0243 21.1378 26.3839 20.5821 26.6521Z" fill="#ffffff"></path><path d="M23.2574 22.6717C24.5557 23.8393 26.006 25.4282 26.5825 27.6757C27.0084 29.336 26.951 31.3287 26.0445 33.7439C26.9647 33.1955 27.8855 32.6071 28.7766 31.9041C29.0324 31.2015 29.1554 30.5462 29.1763 29.9334C29.229 28.3886 28.6345 27.0721 27.7959 25.9043C27.1339 24.9824 26.3351 24.1716 25.5877 23.4128C25.3802 23.2023 25.1764 22.9954 24.9808 22.7915C24.5685 22.3617 24.1895 21.9412 23.902 21.5292L23.8579 21.53C23.744 21.8371 23.6017 22.1297 23.4339 22.4035C23.375 22.4994 23.3157 22.5888 23.2574 22.6717Z" fill="#ffffff"></path><path d="M24.4849 21.1035C24.3078 20.8375 24.1901 20.5952 24.1329 20.3703C24.1677 20.0482 24.1691 19.7229 24.137 19.3968C24.1101 19.1243 24.0686 18.7738 24.0436 18.568L24.2619 18.4013C24.314 18.3613 24.3653 18.3212 24.4155 18.281C24.4343 18.3396 24.4555 18.3996 24.479 18.461C24.6165 18.8185 24.8439 19.2431 25.1835 19.7264C25.8629 20.6933 27.0017 21.9102 28.8067 23.3161C30.9694 25.0006 31.6844 26.6784 31.6586 28.1656C31.6531 28.4841 31.6136 28.7964 31.5457 29.1006C30.9898 29.8328 30.4029 30.4682 29.7956 31.0327C29.8711 30.6629 29.9131 30.3033 29.9251 29.9531C29.9836 28.2372 29.3191 26.792 28.4294 25.5531C27.734 24.5847 26.8858 23.7241 26.134 22.9614C25.932 22.7564 25.7369 22.5585 25.5536 22.3674C25.1146 21.9097 24.7448 21.494 24.4849 21.1035Z" fill="#ffffff"></path><path d="M25.0587 17.7119C25.0624 17.8307 25.0961 18.0093 25.1887 18.2504C25.3044 18.5513 25.5046 18.9305 25.8209 19.3807C26.4534 20.2809 27.5398 21.4498 29.3036 22.8237C31.463 24.5056 32.3309 26.2426 32.4034 27.8642C32.6705 27.445 32.9155 27.0246 33.1395 26.6039C33.1284 26.3283 33.0974 26.0542 33.0457 25.782C32.7346 24.1442 31.6651 22.536 29.5517 21.0771C27.7436 19.829 26.7141 18.6597 26.1177 17.7709C25.9298 17.4909 25.7856 17.2398 25.674 17.0243C25.4939 17.2549 25.2897 17.4845 25.0587 17.7119Z" fill="#ffffff"></path><path d="M26.2055 16.4413C26.1858 16.3975 26.1679 16.3567 26.1517 16.3186C26.366 15.948 26.5249 15.579 26.6392 15.2178C26.8783 15.5246 27.1975 15.8891 27.6057 16.3001C28.4383 17.1388 29.6556 18.1861 31.3558 19.3542C33.2959 20.687 34.0785 22.4177 34.3107 23.8785C34.1434 24.3827 33.949 24.8896 33.7255 25.3975C33.3147 23.6708 32.1351 22.0234 30.0145 20.5596C28.279 19.3616 27.3117 18.2544 26.7629 17.4366C26.4883 17.0274 26.3167 16.6879 26.2055 16.4413Z" fill="#ffffff"></path><path d="M26.8506 14.2399C26.9883 14.5133 27.3897 15.0815 28.1701 15.8675C28.9689 16.6721 30.151 17.691 31.8172 18.8357C33.379 19.9087 34.256 21.2149 34.7115 22.4685C34.9843 21.3201 35.1227 20.1948 35.1509 19.114C34.7383 18.1862 33.5562 16.7561 30.9844 15.6958C29.2999 15.0013 28.0661 14.1787 27.2213 13.4452C27.0974 13.3376 26.9813 13.2315 26.873 13.1274C26.8997 13.4747 26.8977 13.8486 26.8506 14.2399Z" fill="#ffffff"></path><path d="M27.7478 12.9771C27.1355 12.4455 26.7679 11.9861 26.5922 11.6966C26.5165 11.4557 26.4268 11.2159 26.3235 10.9777C26.5232 10.9017 26.7138 10.8204 26.8956 10.7341C27.5708 11.2384 28.799 12.0145 31.3213 12.8962C32.7155 13.3835 33.5704 14.1178 34.0641 14.9278C34.5038 15.6494 34.667 16.4482 34.6468 17.2156C33.8941 16.475 32.8077 15.7205 31.3026 15.1C29.6968 14.438 28.5332 13.659 27.7478 12.9771Z" fill="#ffffff"></path><path d="M26.0298 10.3723C28.307 9.50399 29.2115 7.88221 29.2346 6.43759C29.2592 4.9031 28.32 3.68666 27.0833 3.54863C26.5302 3.48689 25.9704 3.73276 25.1535 4.34206C24.767 4.63037 24.3445 4.98263 23.854 5.39163L23.7979 5.43835C23.3942 5.77489 22.9484 6.14566 22.4494 6.54039C22.6653 6.68275 22.8755 6.84337 23.0865 7.01247C23.5955 6.27417 24.9588 5.5209 27.6339 5.67654C27.8403 5.68855 27.9966 5.84529 27.9829 6.02663C27.9692 6.20797 27.7908 6.34524 27.5844 6.33323C24.8097 6.17179 23.8783 7.03829 23.655 7.48217C23.6891 7.51162 23.7229 7.54118 23.7566 7.57086C24.3643 7.41229 25.1038 7.37995 25.8008 7.41487C26.5832 7.45406 27.3591 7.58056 27.9132 7.74281C28.1094 7.80028 28.2155 7.98663 28.15 8.15904C28.0846 8.33145 27.8725 8.42463 27.6763 8.36716C27.1962 8.22655 26.4872 8.10844 25.7582 8.07192C25.2549 8.04671 24.7639 8.06156 24.3441 8.12582C25.0421 8.83202 25.6093 9.58947 26.0298 10.3723Z" fill="#ffffff"></path><path d="M23.2823 4.96095C22.8343 5.33448 22.3413 5.74427 21.784 6.18049C21.7046 6.14769 21.6237 6.11812 21.5412 6.09215C21.4439 6.06154 21.3458 6.03611 21.2465 6.01596C21.4017 5.87816 21.558 5.73111 21.7153 5.57885C21.9198 5.381 22.1263 5.17419 22.3367 4.96348C22.8633 4.43606 23.4148 3.88383 24.0205 3.38492C24.3407 3.12124 24.6813 2.87063 25.0399 2.65266C26.5116 1.75812 28.3834 2.30467 29.561 3.5692C31.5059 5.65753 30.8252 7.34037 30.1617 8.85591C30.9806 8.96154 31.8495 9.55884 32.6289 10.5265C32.0884 10.239 31.5271 10.0258 30.9818 9.87074C30.1376 9.63075 29.3202 9.52675 28.6575 9.50453C29.5587 8.58397 29.967 7.48426 29.9836 6.44686C30.0109 4.74739 28.9576 3.0944 27.1777 2.89575C26.2785 2.79539 25.4953 3.22379 24.6687 3.84035C24.2659 4.1408 23.8296 4.50457 23.3465 4.90743L23.2823 4.96095Z" fill="#ffffff"></path><path d="M30.7512 10.4969C31.2958 10.6517 31.8497 10.8676 32.3731 11.1617C33.3062 11.6858 33.9401 12.6101 34.3033 13.6261C34.3848 13.8542 34.4616 14.0885 34.5332 14.3287C33.9334 13.4945 32.9885 12.7706 31.5982 12.2847C29.3809 11.5096 28.2216 10.8297 27.5683 10.3688C27.6662 10.3083 27.7608 10.2461 27.8522 10.1825C28.4511 10.1203 29.5654 10.1598 30.7512 10.4969Z" fill="#ffffff"></path><path d="M19.0516 12.3712L20.2758 16.0848C20.2804 16.0988 20.285 16.1129 20.2897 16.127L20.2758 16.0848C19.9378 15.0415 20.049 14.0342 20.1945 13.3366C20.6964 13.3812 21.0626 13.3478 21.4076 13.2704C22.3181 13.0661 22.9253 12.3578 23.5035 11.6833C23.5895 11.583 23.6748 11.4834 23.7604 11.3863C23.8779 11.2531 24.0157 11.1148 24.1798 10.9631C23.9155 11.0051 23.6571 11.0435 23.4036 11.0811C21.836 11.3141 20.4561 11.5191 19.0516 12.3712Z" fill="#ffffff"></path></g>
    <g style="opacity: 1;" id="logotype" transform="translate(36, 20.5)"></g>
</svg>